<?xml version="1.0" encoding="UTF-8"?>
<svg version="1.1" xmlns="http://www.w3.org/2000/svg" width="1920" height="1920">
<path d="M0 0 C0.85102295 0.04338501 1.7020459 0.08677002 2.57885742 0.13146973 C43.64187465 2.24146711 43.64187465 2.24146711 51 8 C54.0133821 12.37426434 54.60161766 15.75733181 54 21 C51.4115659 29.71605496 47.3280087 37.77163377 43.25 45.86328125 C42.58902701 47.18470617 41.92847325 48.50634086 41.26831055 49.82817078 C39.88690754 52.5908876 38.50144237 55.35151435 37.11279297 58.1105957 C35.36935152 61.57505848 33.63464474 65.04380155 31.9027071 68.51402664 C23.91106724 84.51935621 15.70872184 100.36963475 7 116 C6.38205566 117.12092041 5.76411133 118.24184082 5.12744141 119.39672852 C-3.20689667 134.48938528 -12.10615899 149.22105689 -21.11669922 163.91503906 C-22.6785371 166.47342426 -24.22370845 169.03982803 -25.75390625 171.6171875 C-42.73651415 200.1137136 -61.97350015 227.38746145 -82.19775391 253.65429688 C-83.75836243 255.685498 -85.30998191 257.72291407 -86.85546875 259.765625 C-91.82315703 266.31678195 -97.00551577 272.6404113 -102.3515625 278.8828125 C-104.76938975 281.7114441 -107.10770426 284.59826885 -109.4375 287.5 C-113.30390167 292.2549105 -117.38528868 296.76661645 -121.57592773 301.234375 C-124.17322 304.00482008 -126.70809978 306.81002029 -129.18334961 309.69042969 C-132.97503613 314.03125423 -136.97841214 318.12295056 -141.05859375 322.19140625 C-142.18056908 323.31481667 -142.18056908 323.31481667 -143.32521057 324.46092224 C-144.89632464 326.03271225 -146.46868392 327.60325849 -148.04223633 329.17260742 C-150.43099846 331.55601304 -152.81437446 333.94471068 -155.19726562 336.33398438 C-156.7340545 337.87011237 -158.2711536 339.40593009 -159.80859375 340.94140625 C-160.51092636 341.64576309 -161.21325897 342.35011993 -161.93687439 343.07582092 C-166.46483057 347.58271105 -171.14954182 351.84361668 -176 356 C-177.11786708 356.97317826 -178.23516858 357.94700713 -179.3515625 358.921875 C-187.37621577 365.87285826 -195.58061046 372.53418079 -204 379 C-204.60505371 379.46873535 -205.21010742 379.9374707 -205.83349609 380.42041016 C-272.37643974 431.88191198 -351.20642953 463.99724327 -435 472 C-435.99064453 472.09571289 -436.98128906 472.19142578 -438.00195312 472.29003906 C-449.56631963 473.26244963 -461.15200463 473.24361189 -472.75 473.25 C-474.40705963 473.25101212 -474.40705963 473.25101212 -476.09759521 473.25204468 C-554.24970763 473.17659602 -631.55449492 453.39822391 -707 421 C-707.96921387 420.58034973 -707.96921387 420.58034973 -708.95800781 420.15222168 C-740.199843 406.58353211 -771.11319062 391.68261457 -800.50683594 374.45166016 C-803.03598561 372.97904716 -805.58083469 371.53811563 -808.1328125 370.10546875 C-828.20119459 358.82090827 -847.78965344 346.68785923 -867 334 C-868.32451172 333.12722412 -868.32451172 333.12722412 -869.67578125 332.23681641 C-943.48960743 283.53117772 -943.48960743 283.53117772 -947.0625 272.8125 C-946.88330486 261.88159667 -938.20661105 254.30196929 -931 247 C-930.18128418 246.16227051 -929.36256836 245.32454102 -928.51904297 244.46142578 C-926.16793209 242.05923111 -923.81091181 239.66337106 -921.44650269 237.27429199 C-920.04005057 235.8529739 -918.6363175 234.4289668 -917.23266602 233.00488281 C-911.8841952 227.65115575 -906.37426403 222.70381898 -900.46484375 217.97680664 C-897.91966312 215.93556976 -895.46709023 213.81589506 -893.02392578 211.65527344 C-829.46670018 155.65323229 -745.8368726 119.07698748 -662 89 C-661.17626892 88.70609375 -660.35253784 88.4121875 -659.50384521 88.109375 C-558.63817521 52.20750434 -453.44615101 29.81429139 0 0 Z " fill="#FFFFFF" transform="translate(1467,1078)"/>
<path d="M0 0 C0.85207031 0.42410156 1.70414063 0.84820312 2.58203125 1.28515625 C19.6868704 10.71777876 32.20053607 27.75514209 37.70627594 46.39054871 C39.22496428 52.48655056 40.26145251 58.67046147 41.3203125 64.859375 C41.69527344 66.93907381 42.07257738 69.01835128 42.45198059 71.09724426 C43.26971236 75.60069555 44.07332355 80.10634883 44.86593628 84.61428833 C46.71583152 95.12801285 48.63362723 105.62943305 50.54490501 116.13213867 C51.28156068 120.18057612 52.01581695 124.22944039 52.74847418 128.27860326 C56.97612206 151.63453592 61.37407802 174.95654608 65.83203125 198.26953125 C66.0833111 199.58367752 66.0833111 199.58367752 66.33966732 200.9243722 C68.36595431 211.5192201 70.39691874 222.11316872 72.43005705 232.70670378 C74.56503498 243.83107578 76.69617912 254.95618229 78.82697964 266.08135509 C79.14089329 267.72030843 79.45480759 269.35926164 79.76872253 270.99821472 C79.99864054 272.19867275 79.99864054 272.19867275 80.23320335 273.42338246 C81.11074339 278.00467728 81.98921537 282.58579201 82.86854476 287.1667437 C84.19293778 294.06632485 85.51435377 300.96646159 86.82987851 307.86773962 C87.49858267 311.37540996 88.16908408 314.8827216 88.84273148 318.38944626 C89.54543491 322.04826999 90.24360595 325.70793395 90.93881524 329.36818874 C91.2002452 330.74068516 91.46316387 332.11289905 91.72774303 333.48479187 C96.20405588 356.71254124 96.94416088 378.81096148 83.71875 399.59375 C74.23172309 412.87558767 62.10704467 421.53470242 46 425 C34.40039084 425.89924258 22.64629289 426.1379235 12 421 C11.09636719 420.59910156 10.19273438 420.19820312 9.26171875 419.78515625 C-8.20188139 411.2633146 -19.7826184 394.59927484 -27 377 C-28.63009615 371.69273646 -29.76202186 366.32664242 -30.8515625 360.890625 C-31.18154069 359.32044634 -31.51335455 357.75065253 -31.84683228 356.18121338 C-32.5531073 352.8423493 -33.2481952 349.50143281 -33.93469238 346.15844727 C-34.99094056 341.02372441 -36.08310201 335.89709201 -37.18261719 330.77148438 C-39.39038281 320.46223853 -41.56427265 310.14603357 -43.72919083 299.82771301 C-44.38635928 296.69586544 -45.04427928 293.56417633 -45.70223999 290.43249512 C-53.89776993 251.40394203 -61.88271957 212.33322367 -69.8125 173.25 C-69.95152205 172.56488028 -70.09054411 171.87976055 -70.23377895 171.17387962 C-71.1951511 166.43598754 -72.15607442 161.6980046 -73.11669922 156.95996094 C-73.2496618 156.30427045 -73.38262438 155.64857997 -73.51961613 154.97302008 C-74.94494132 147.94333762 -76.36667818 140.91296002 -77.77972412 133.88079834 C-80.79655733 118.86963227 -80.79655733 118.86963227 -83.9285593 103.8821907 C-84.70577886 100.23065243 -85.47011796 96.57647476 -86.23334312 92.92198944 C-86.575215 91.30435462 -86.92363317 89.68808357 -87.27988625 88.07355499 C-92.11915564 66.13928022 -91.51052362 45.30574882 -79.22753906 25.80664062 C-62.86047179 1.7182759 -27.76508422 -13.99151026 0 0 Z " fill="#FFFFFF" transform="translate(1272,435)"/>
<path d="M0 0 C20.11665739 13.79011441 29.3534058 33.28207566 33.74853516 56.66772461 C34.17592827 58.97140753 34.59887147 61.27584346 35.01903343 63.58085632 C35.49909532 66.21340869 35.98417419 68.8449997 36.47029114 71.47644043 C37.19858615 75.42075726 37.92513511 79.36538976 38.65036011 83.31027222 C40.71632117 94.54255842 42.7989872 105.77174194 44.88671875 117 C45.11883875 118.24850676 45.35095875 119.49701351 45.59011269 120.78335381 C50.2039947 145.57741171 54.91593503 170.35259545 59.64453125 195.125 C59.82851628 196.08895478 60.01250132 197.05290957 60.20206165 198.04607511 C63.93529106 217.60453346 67.67437342 237.16187136 71.41835743 256.71827376 C72.85261606 264.21026623 74.28568948 271.70248486 75.71803325 279.19484365 C76.55478648 283.57119374 77.39230617 287.947394 78.23176003 292.32322693 C84.11987961 323.01906015 84.11987961 323.01906015 86.59008789 336.81665039 C86.75020827 337.68679748 86.91032866 338.55694456 87.07530117 339.45345974 C90.59729694 359.54624874 88.2555853 379.2126566 77.1875 396.6875 C68.00449181 409.20308121 54.51061173 418.70576024 39.046875 421.37109375 C20.84516577 423.38521731 5.41784823 419.4469353 -9 408.0625 C-17.17950267 400.9067682 -23.00699646 392.53408328 -28.1875 383.0625 C-28.50944336 382.47766846 -28.83138672 381.89283691 -29.16308594 381.2902832 C-33.27145138 373.42461107 -35.14774287 364.73385821 -36.94702148 356.1015625 C-37.14010486 355.19221577 -37.33318823 354.28286903 -37.53212261 353.34596634 C-38.17011314 350.33567493 -38.80194439 347.32412783 -39.43359375 344.3125 C-39.88966627 342.15266746 -40.34604397 339.99289934 -40.80270386 337.83319092 C-42.03406471 332.00284704 -43.25949183 326.17127132 -44.4833107 320.33934021 C-45.25370103 316.6698715 -46.02559873 313.00072292 -46.79794312 309.33166504 C-55.89504667 266.10747753 -64.81479322 222.84839007 -73.57085991 179.55389214 C-76.25591078 166.28078789 -78.98238911 153.01694395 -81.74601746 139.75997925 C-83.24967686 132.54600798 -84.74079692 125.32946224 -86.22873783 118.11223412 C-87.23133932 113.25324543 -88.24040057 108.39581224 -89.26602173 103.54162598 C-90.21426534 99.05357536 -91.14470664 94.56218274 -92.06237984 90.06778526 C-92.39741096 88.44287461 -92.73874695 86.81924659 -93.08744621 85.19721413 C-97.83376211 63.07658593 -97.43220885 42.16657922 -85.04003906 22.49414062 C-66.72609892 -4.45955012 -29.11333391 -17.61079054 0 0 Z " fill="#FFFFFF" transform="translate(572.8125,557.3125)"/>
</svg>
